<?xml version="1.0" encoding="iso-8859-1"?>
<!-- Generator: Adobe Illustrator 16.0.0, SVG Export Plug-In . SVG Version: 6.00 Build 0)  -->
<!DOCTYPE svg PUBLIC "-//W3C//DTD SVG 1.1//EN" "http://www.w3.org/Graphics/SVG/1.1/DTD/svg11.dtd">
<svg version="1.1" id="Capa_1" xmlns="http://www.w3.org/2000/svg" xmlns:xlink="http://www.w3.org/1999/xlink" x="0px" y="0px"
	 width="32.002px" height="32.002px" viewBox="0 0 32.002 32.002" style="enable-background:new 0 0 32.002 32.002;"
	 xml:space="preserve">
<g>
	<path d="M13.571,27.48c0,0.358-0.261,0.649-0.583,0.649c-0.322,0-0.583-0.291-0.583-0.649c0-0.359,0.261-0.65,0.583-0.65
		C13.31,26.83,13.571,27.121,13.571,27.48z M14.197,28.335c-0.245,0-0.443,0.223-0.443,0.496s0.198,0.496,0.443,0.496
		c0.245,0,0.443-0.223,0.443-0.496S14.441,28.335,14.197,28.335z M15.793,29.289c-0.221,0-0.4,0.199-0.4,0.446
		s0.179,0.447,0.4,0.447s0.4-0.2,0.4-0.447S16.014,29.289,15.793,29.289z M17.512,29.5c-0.25,0-0.451,0.228-0.451,0.506
		c0,0.28,0.201,0.508,0.451,0.508s0.452-0.228,0.452-0.508C17.964,29.727,17.762,29.5,17.512,29.5z M19.155,29.5
		c-0.249,0-0.45,0.228-0.45,0.506c0,0.28,0.201,0.508,0.45,0.508c0.25,0,0.453-0.228,0.453-0.508
		C19.608,29.727,19.405,29.5,19.155,29.5z M32.002,18.666c-0.038,5.152-2.71,6.783-3.588,7.319c-0.06,0.036-0.11,0.067-0.15,0.095
		c-0.094,0.062-0.199,0.09-0.324,0.09c-0.455,0-1.152-0.402-2.379-1.135c-0.812-0.486-2.052-1.225-2.769-1.418
		c0.234,0.709-0.229,0.994-0.758,0.644c-0.061,0.768,0.119,2.077,0.242,2.956c0.252,1.8,0.346,2.605-0.09,2.896
		c-0.041,0.027-0.088,0.062-0.146,0.103c-0.559,0.4-1.874,1.348-4.104,1.348c-1.111,0-2.452-0.235-4.037-0.893
		c-1.345-0.558-2.21-1.431-2.571-2.597c-0.463-1.495,0.008-3.145,0.496-4.284c-0.824,0.657-1.577,1.322-2.178,1.924
		c-0.262,0.219-0.533,0.315-0.814,0.315c-1.034,0-2.209-1.325-3.616-2.916c-0.312-0.353-0.636-0.717-0.971-1.083
		c-0.61-0.666-1.279-1.311-1.926-1.936c-1.46-1.408-2.287-2.236-2.318-2.874c-0.029-0.557,0.16-1.341,1.225-1.904
		c3.135-1.658,12.291-0.252,14.974,0.862c-0.113-0.298-0.254-0.793-0.129-1.197c-0.831-0.437-2.221-1.248-3.209-2.224
		c-0.069,0.027-0.149,0.02-0.216-0.052c-0.116-0.125-0.233-0.249-0.349-0.374c-0.192-0.205,0.116-0.516,0.309-0.309
		c0.116,0.125,0.233,0.249,0.349,0.374c0.073,0.078,0.074,0.171,0.036,0.245c0.966,0.953,2.329,1.747,3.15,2.179
		c0.043-0.079,0.098-0.153,0.172-0.217c0.121-0.104,0.253-0.155,0.392-0.17c-0.033-0.903-0.126-2.355-0.383-3.343
		c-0.076-0.007-0.143-0.055-0.161-0.156c-0.026-0.146-0.051-0.293-0.076-0.439c-0.046-0.277,0.375-0.395,0.423-0.117
		c0.025,0.146,0.051,0.293,0.076,0.439c0.018,0.098-0.027,0.176-0.091,0.223c0.266,1.017,0.358,2.483,0.391,3.393
		c0.302,0.03,0.615,0.201,0.882,0.386c0.168-3.197,2.373-11.639,5.026-13.803c0.935-0.763,1.729-0.632,2.232-0.387
		c0.575,0.276,1.016,1.361,1.745,3.256c0.323,0.838,0.656,1.705,1.031,2.525c0.206,0.45,0.416,0.89,0.619,1.313
		c1.165,2.438,2.086,4.364,0.699,5.082c-0.8,0.325-1.714,0.764-2.646,1.271c1.238-0.005,2.939,0.203,4.137,1.211
		C31.544,16.073,32.014,17.21,32.002,18.666z M23.297,16.042c-0.484,0.344-0.938,0.691-1.343,1.034
		c0.295-0.02,0.66-0.041,1.085-0.059c0.006,0,0.014,0,0.021,0c0.848-0.035,1.905-0.058,3.018-0.021
		c1.999,0.063,4.226,0.491,5.135,0.684c-0.095-0.475-0.266-0.893-0.508-1.25C27.464,14.751,24.649,15.481,23.297,16.042z
		 M25.076,14.878c-0.321,0.194-0.64,0.394-0.948,0.598c1.458-0.419,3.663-0.649,6.148,0.456c-0.039-0.036-0.073-0.075-0.114-0.109
		C28.506,14.428,25.546,14.808,25.076,14.878z M29.049,11.938c-3.501,0.812-8.523,4.083-9.029,4.417
		c-0.123,0.545-0.224,1.012-0.295,1.35c0.075,0.144,0.152,0.289,0.23,0.437c1.671-2.324,6.456-4.989,8.873-5.97
		C28.93,12.119,29.001,12.039,29.049,11.938z M21.321,11.307c-0.279,0.903-0.557,1.936-0.803,2.927
		c0.828-0.54,3.291-2.158,4.184-2.849c0.342-0.265,0.768-0.689,1.22-1.138c0.031-0.03,0.061-0.06,0.092-0.091
		c-0.853,0.014-1.271-0.631-1.441-1.009C23.796,10.275,21.848,11.101,21.321,11.307z M24.201,9.198
		c-0.622,0.258-1.459,0.396-1.953-0.175c-0.261,0.389-0.541,1.098-0.82,1.956C22.065,10.71,23.481,10.046,24.201,9.198z
		 M20.428,14.606c-0.117,0.484-0.228,0.952-0.326,1.383c1.133-0.731,5.535-3.482,8.768-4.276c-0.748-0.149-2.262-0.561-2.565-1.476
		c-0.066,0.067-0.133,0.132-0.195,0.195c-0.459,0.455-0.891,0.885-1.246,1.16C23.85,12.377,20.832,14.344,20.428,14.606z
		 M28.134,8.747c-0.399,0.133-1.034,0.713-1.614,1.279c0.146,0.957,1.987,1.361,2.6,1.468C29.085,10.854,28.663,9.871,28.134,8.747z
		 M27.378,7.154c-0.643,0.193-2.092,0.726-2.634,1.713c0.073,0.236,0.454,1.221,1.569,0.991c0.643-0.629,1.242-1.176,1.709-1.346
		c-0.078-0.16-0.153-0.323-0.231-0.487C27.653,7.743,27.518,7.451,27.378,7.154z M27.004,6.332
		c-0.921,0.341-3.599,1.397-4.585,2.478c0.595,0.762,1.896,0.055,2.088-0.057c0.579-1.07,2.062-1.63,2.759-1.84
		c-0.033-0.071-0.065-0.14-0.099-0.211C27.11,6.581,27.059,6.456,27.004,6.332z M26.48,5.067c-1.118,0.611-4.818,2.703-5.659,4.072
		c-0.789,1.286-1.584,5.44-1.881,7.121c0.174,0.312,0.373,0.681,0.59,1.085c0.301-1.402,0.92-4.158,1.574-6.222l-0.003-0.013
		c0,0,0.008-0.003,0.01-0.004c0.35-1.097,0.709-1.997,1.035-2.388c0.976-1.165,3.771-2.268,4.75-2.629
		C26.752,5.75,26.612,5.406,26.48,5.067z M20.747,7.375c1.062-0.844,3.617-2.788,5.31-3.401c-0.309-0.798-0.658-1.689-0.955-2.23
		C24.311,2.58,21.995,5.115,20.747,7.375z M21.424,4.121c0.866-1.18,1.973-2.47,2.959-2.968c-0.365-0.056-0.744,0.078-1.146,0.406
		C22.59,2.084,21.98,3,21.424,4.121z M18.645,13.295c0.323-1.674,0.807-3.713,1.442-5.182c1.092-2.518,4.036-5.721,4.873-6.603
		c-0.076-0.112-0.146-0.191-0.21-0.233c-1.298,0.443-2.982,2.746-3.916,4.155C19.778,7.999,18.992,11.146,18.645,13.295z
		 M18.524,15.542c0.062,0.099,0.131,0.219,0.213,0.357c0.332-1.851,1.084-5.634,1.861-6.898c0.891-1.453,4.68-3.582,5.783-4.181
		c-0.08-0.206-0.158-0.406-0.232-0.603c-2.004,0.726-5.4,3.487-5.701,3.733c-0.043,0.09-0.084,0.179-0.121,0.267
		C19.362,10.439,18.758,13.989,18.524,15.542z M16.516,16.834c0.032,0.008,0.064,0.018,0.096,0.025
		c-0.02-0.027-0.037-0.053-0.055-0.078L16.516,16.834z M0.737,16.832c0.843-0.715,2.462-1.23,3.886-1.568
		c-1.248,0.076-2.329,0.281-3.066,0.672C1.098,16.178,0.828,16.474,0.737,16.832z M0.844,17.503
		c1.139-0.428,5.235-1.893,7.979-1.917c1.6-0.015,3.663,0.335,5.33,0.689c-2.114-0.518-5.319-1.017-8.092-1.045
		c-1.661,0.311-4.437,0.965-5.35,1.988C0.724,17.294,0.77,17.391,0.844,17.503z M2.684,19.471c1.224-1.317,4.012-2.914,5.202-3.565
		c-2.567,0.27-5.805,1.416-6.883,1.818C1.385,18.209,2.07,18.876,2.684,19.471z M3.337,20.104c0.982-0.783,4.418-3.445,6.104-3.7
		c1.634-0.247,6.12,0.746,7.618,1.095c-0.078-0.108-0.146-0.209-0.215-0.306c-0.921-0.25-5.206-1.37-8.02-1.344
		c-0.095,0.001-0.193,0.003-0.292,0.008c-0.34,0.178-4.209,2.232-5.659,3.797C3.024,19.798,3.179,19.949,3.337,20.104z
		 M4.306,21.071c0.709-0.757,2.816-2.907,4.272-3.352c0.488-0.148,1.456-0.131,2.603-0.023c0.001-0.002,0.007-0.008,0.007-0.008
		l0.01,0.009c2.382,0.221,5.523,0.812,6.736,1.051c-0.23-0.332-0.451-0.644-0.647-0.926c-1.058-0.25-6.119-1.414-7.804-1.158
		c-1.588,0.239-4.957,2.834-5.954,3.625C3.787,20.542,4.049,20.805,4.306,21.071z M8.397,21.839
		c0.039-0.017,0.078-0.031,0.118-0.049c0.589-0.24,1.147-0.469,1.524-0.681c0.984-0.552,3.435-2.192,4.253-2.743
		c-1.009-0.158-2.068-0.308-3.009-0.4c-0.393,0.402-1.912,1.879-3.255,2.152C8.31,20.423,8.741,21.06,8.397,21.839z M8.219,19.796
		c1.063-0.334,2.226-1.379,2.722-1.86c-0.899-0.076-1.662-0.095-2.122-0.005C9.153,18.607,8.7,19.326,8.219,19.796z M4.921,21.73
		c0.464-0.562,1.558-1.709,2.769-1.825c0.179-0.135,1.332-1.055,0.867-1.897c-1.383,0.486-3.4,2.541-4.07,3.256
		c0.093,0.098,0.188,0.195,0.278,0.295C4.818,21.615,4.869,21.671,4.921,21.73z M6.1,23.05c0.338-0.363,1.074-0.703,1.904-1.051
		c0.648-0.937-0.112-1.672-0.301-1.832c-1.12,0.114-2.176,1.244-2.603,1.761c0.219,0.243,0.435,0.485,0.643,0.721
		C5.864,22.785,5.982,22.917,6.1,23.05z M8.078,22.255c-0.747,0.313-1.528,0.674-1.806,0.989c0.826,0.92,1.568,1.69,2.149,1.965
		C8.561,24.595,8.899,22.757,8.078,22.255z M16.071,18.667c-0.435-0.078-0.909-0.16-1.401-0.238
		c-0.398,0.269-3.385,2.283-4.504,2.91C9.774,21.56,9.21,21.79,8.613,22.034c-0.082,0.033-0.168,0.068-0.256,0.104
		c0.723,0.637,0.515,2.189,0.361,2.937C10.708,22.408,14.959,19.423,16.071,18.667z M18.34,19.322
		c-0.062-0.089-0.125-0.177-0.188-0.265c-0.312-0.062-0.93-0.184-1.708-0.324c-0.5,0.333-5.458,3.677-7.576,6.583
		c0.115-0.007,0.22-0.043,0.313-0.121C11.054,23.319,15.563,19.813,18.34,19.322z M14.035,22.169
		c-0.309,0.207-0.618,0.422-0.923,0.644c-0.243,0.396-1.755,2.981-1.112,5.057c0.015,0.049,0.038,0.098,0.056,0.147
		C12.006,25.292,13.08,23.35,14.035,22.169z M13.3,29.557c0.178-0.912,0.651-3.132,1.372-4.995c0.403-1.042,0.836-2.014,1.199-2.781
		c0.002-0.003,0.003-0.007,0.004-0.009c0.183-0.385,0.345-0.715,0.478-0.979c-0.473,0.238-0.968,0.521-1.47,0.83
		c-1.042,1.024-2.82,3.334-2.536,6.979C12.582,28.966,12.901,29.287,13.3,29.557z M14.955,30.319
		c-0.1-1.351,0.219-5.061,0.586-7.176c-0.207,0.476-0.42,0.984-0.624,1.514c-0.74,1.916-1.218,4.216-1.378,5.05
		c0.195,0.113,0.403,0.223,0.632,0.316C14.44,30.134,14.702,30.233,14.955,30.319z M16.457,30.716
		c0.054-1.284,0.258-5.504,0.657-7.104c0.326-1.309,0.844-2.79,1.121-3.556c-0.445,0.104-0.949,0.292-1.491,0.545
		c-0.146,0.286-0.371,0.729-0.632,1.282c-0.525,1.166-1.041,7.146-0.897,8.521C15.652,30.542,16.066,30.646,16.457,30.716z
		 M19.676,24.625c-0.217-1.998-0.678-3.978-0.824-4.576c-0.019-0.026-0.037-0.053-0.057-0.079c-0.083,0.005-0.169,0.015-0.259,0.028
		c-0.258,0.703-0.82,2.289-1.167,3.678c-0.393,1.568-0.598,5.854-0.651,7.087c1.267,0.192,2.276,0.067,3.058-0.167
		C19.811,29.605,19.891,26.598,19.676,24.625z M21.584,27.313c-0.234-1.686-0.376-2.942-0.134-3.67
		c-0.471-0.612-1.32-1.795-2.197-3.029c0.204,0.904,0.517,2.437,0.685,3.98c0.209,1.928,0.141,4.828,0.104,5.91
		c0.231-0.082,0.44-0.174,0.629-0.267c-0.249-0.001-0.45-0.227-0.45-0.505c0-0.277,0.202-0.505,0.452-0.505
		c0.251,0,0.453,0.226,0.453,0.505c0,0.12-0.038,0.229-0.103,0.313c0.264-0.152,0.465-0.299,0.61-0.401
		c0.048-0.034,0.091-0.064,0.127-0.09C21.858,29.282,21.701,28.147,21.584,27.313z M29.46,24.253
		c-1.014-0.387-3.709-1.453-5.403-2.396c-1.258-0.701-2.457-1.511-3.227-2.057c0.645,1.23,1.251,2.406,1.602,3.074
		c0.766-0.021,1.922,0.623,3.487,1.56c0.724,0.432,1.706,1.02,1.998,1.035c0.037-0.024,0.082-0.054,0.132-0.082
		c0.154-0.095,0.369-0.228,0.615-0.411c-0.105,0.025-0.224,0.023-0.336-0.022c-0.259-0.108-0.388-0.384-0.289-0.613
		c0.098-0.229,0.385-0.328,0.643-0.221c0.254,0.107,0.383,0.379,0.291,0.607C29.13,24.591,29.294,24.438,29.46,24.253z
		 M30.983,21.292c-1.162-0.434-5.181-1.908-6.773-2.155c-1.413-0.222-3.092-0.321-3.841-0.357c-0.015,0.021-0.029,0.044-0.042,0.065
		c0.076,0.146,0.154,0.294,0.232,0.441c0.686,0.498,2.113,1.502,3.625,2.344c1.732,0.966,4.532,2.062,5.459,2.414
		C30.165,23.417,30.671,22.532,30.983,21.292z M31.242,19.769c-1.22-0.669-6.937-2.521-8.197-2.489
		c-0.605,0.025-1.101,0.059-1.419,0.082c-0.444,0.401-0.815,0.793-1.085,1.163c0.813,0.042,2.377,0.144,3.709,0.353
		c1.628,0.254,5.593,1.709,6.801,2.16C31.136,20.649,31.198,20.224,31.242,19.769z M31.27,19.498
		c0.021-0.267,0.031-0.545,0.033-0.836c0.002-0.248-0.016-0.479-0.046-0.705c-0.829-0.178-3.135-0.634-5.188-0.696
		c-0.566-0.019-1.118-0.021-1.639-0.017C26.522,17.73,30.063,18.88,31.27,19.498z M29.19,17.119
		c0.332,0.142,0.701,0.014,0.827-0.283c0.125-0.297-0.042-0.649-0.373-0.79c-0.331-0.14-0.701-0.013-0.827,0.283
		C28.692,16.626,28.86,16.98,29.19,17.119z M30.367,17.812c-0.253-0.105-0.533-0.01-0.63,0.217c-0.096,0.226,0.03,0.494,0.282,0.602
		c0.252,0.106,0.533,0.011,0.629-0.217C30.745,18.189,30.618,17.919,30.367,17.812z M30.25,20.412
		c0.229,0.096,0.481,0.01,0.567-0.193c0.086-0.204-0.028-0.446-0.258-0.543c-0.228-0.097-0.481-0.01-0.567,0.193
		C29.905,20.072,30.021,20.316,30.25,20.412z M29.811,22.148c0.256,0.107,0.543,0.011,0.642-0.219
		c0.098-0.23-0.031-0.506-0.289-0.613c-0.257-0.109-0.543-0.012-0.642,0.219C29.424,21.765,29.553,22.039,29.811,22.148z
		 M29.169,23.663c0.257,0.108,0.544,0.011,0.642-0.22c0.097-0.23-0.033-0.504-0.289-0.613c-0.258-0.107-0.545-0.01-0.642,0.221
		C28.782,23.28,28.912,23.555,29.169,23.663z"/>
</g>
<g>
</g>
<g>
</g>
<g>
</g>
<g>
</g>
<g>
</g>
<g>
</g>
<g>
</g>
<g>
</g>
<g>
</g>
<g>
</g>
<g>
</g>
<g>
</g>
<g>
</g>
<g>
</g>
<g>
</g>
</svg>
