<?xml version="1.0" encoding="iso-8859-1"?>
<!-- Generator: Adobe Illustrator 19.0.0, SVG Export Plug-In . SVG Version: 6.00 Build 0)  -->
<svg version="1.1" id="Capa_1" xmlns="http://www.w3.org/2000/svg" xmlns:xlink="http://www.w3.org/1999/xlink" x="0px" y="0px"
	 viewBox="0 0 512 512" style="enable-background:new 0 0 512 512;" xml:space="preserve">
<g>
	<g>
		<path d="M400.601,241c-8.284,0-15,6.716-15,15s6.716,15,15,15H497c8.284,0,15-6.716,15-15v-96.4c0-8.285-6.716-15-15-15H304.2
			c-8.284,0-15,6.716-15,15v177.8H30V174.6h162.8V241h-81.4c-8.284,0-15,6.716-15,15s6.716,15,15,15h96.4c8.284,0,15-6.716,15-15
			v-96.4c0-8.284-6.716-15-15-15H15c-8.284,0-15,6.716-15,15v192.8c0,8.284,6.716,15,15,15h482c8.284,0,15-6.716,15-15
			s-6.716-15-15-15H319.2V174.6H482V241H400.601z"/>
	</g>
</g>
<g>
	<g>
		<path d="M497,48.2H15c-8.284,0-15,6.716-15,15s6.716,15,15,15h482c8.284,0,15-6.716,15-15S505.284,48.2,497,48.2z"/>
	</g>
</g>
<g>
	<g>
		<path d="M497,433.8H15c-8.284,0-15,6.716-15,15s6.716,15,15,15h482c8.284,0,15-6.716,15-15S505.284,433.8,497,433.8z"/>
	</g>
</g>
<g>
</g>
<g>
</g>
<g>
</g>
<g>
</g>
<g>
</g>
<g>
</g>
<g>
</g>
<g>
</g>
<g>
</g>
<g>
</g>
<g>
</g>
<g>
</g>
<g>
</g>
<g>
</g>
<g>
</g>
</svg>
